<svg width="116" height="116" viewBox="0 0 116 116" fill="none" xmlns="http://www.w3.org/2000/svg">
<path d="M33 58L51.75 76.75L83 45.5" stroke="black" stroke-width="2" stroke-linecap="round" stroke-linejoin="round"/>
<path d="M1.75 58C1.75 50.6131 3.20495 43.2986 6.03178 36.4741C8.8586 29.6495 13.0019 23.4485 18.2252 18.2252C23.4485 13.0019 29.6495 8.8586 36.4741 6.03178C43.2986 3.20495 50.6131 1.75 58 1.75C65.3869 1.75 72.7014 3.20495 79.5259 6.03178C86.3505 8.8586 92.5515 13.0019 97.7748 18.2252C102.998 23.4485 107.141 29.6495 109.968 36.4741C112.795 43.2986 114.25 50.6131 114.25 58C114.25 72.9184 108.324 87.2258 97.7748 97.7748C87.2258 108.324 72.9184 114.25 58 114.25C43.0816 114.25 28.7742 108.324 18.2252 97.7748C7.67632 87.2258 1.75 72.9184 1.75 58V58Z" stroke="black" stroke-width="2" stroke-linecap="round"/>
</svg>
