<svg width="30" height="30" viewBox="0 0 30 30" fill="none" xmlns="http://www.w3.org/2000/svg">
<path fill-rule="evenodd" clip-rule="evenodd" d="M1.875 15C1.875 18.481 3.25781 21.8194 5.71922 24.2808C8.18064 26.7422 11.519 28.125 15 28.125C18.481 28.125 21.8194 26.7422 24.2808 24.2808C26.7422 21.8194 28.125 18.481 28.125 15C28.125 11.519 26.7422 8.18064 24.2808 5.71922C21.8194 3.25781 18.481 1.875 15 1.875C11.519 1.875 8.18064 3.25781 5.71922 5.71922C3.25781 8.18064 1.875 11.519 1.875 15ZM30 15C30 18.9782 28.4196 22.7936 25.6066 25.6066C22.7936 28.4196 18.9782 30 15 30C11.0218 30 7.20644 28.4196 4.3934 25.6066C1.58035 22.7936 0 18.9782 0 15C0 11.0218 1.58035 7.20644 4.3934 4.3934C7.20644 1.58035 11.0218 0 15 0C18.9782 0 22.7936 1.58035 25.6066 4.3934C28.4196 7.20644 30 11.0218 30 15ZM15.9375 8.4375C15.9375 8.18886 15.8387 7.9504 15.6629 7.77459C15.4871 7.59877 15.2486 7.5 15 7.5C14.7514 7.5 14.5129 7.59877 14.3371 7.77459C14.1613 7.9504 14.0625 8.18886 14.0625 8.4375V19.2994L10.0387 15.2738C9.86271 15.0977 9.62395 14.9988 9.375 14.9988C9.12605 14.9988 8.88729 15.0977 8.71125 15.2738C8.53521 15.4498 8.43632 15.6885 8.43632 15.9375C8.43632 16.1865 8.53521 16.4252 8.71125 16.6012L14.3363 22.2262C14.4233 22.3136 14.5268 22.3828 14.6407 22.4301C14.7546 22.4773 14.8767 22.5017 15 22.5017C15.1233 22.5017 15.2454 22.4773 15.3593 22.4301C15.4732 22.3828 15.5767 22.3136 15.6637 22.2262L21.2887 16.6012C21.4648 16.4252 21.5637 16.1865 21.5637 15.9375C21.5637 15.6885 21.4648 15.4498 21.2887 15.2738C21.1127 15.0977 20.874 14.9988 20.625 14.9988C20.376 14.9988 20.1373 15.0977 19.9613 15.2738L15.9375 19.2994V8.4375Z" fill="#333333"/>
</svg>
