<svg width="30" height="30" viewBox="0 0 30 30" fill="none" xmlns="http://www.w3.org/2000/svg">
<path fill-rule="evenodd" clip-rule="evenodd" d="M1.875 15C1.875 18.481 3.25781 21.8194 5.71922 24.2808C8.18064 26.7422 11.519 28.125 15 28.125C18.481 28.125 21.8194 26.7422 24.2808 24.2808C26.7422 21.8194 28.125 18.481 28.125 15C28.125 11.519 26.7422 8.18064 24.2808 5.71922C21.8194 3.25781 18.481 1.875 15 1.875C11.519 1.875 8.18064 3.25781 5.71922 5.71922C3.25781 8.18064 1.875 11.519 1.875 15ZM30 15C30 18.9782 28.4196 22.7936 25.6066 25.6066C22.7936 28.4196 18.9782 30 15 30C11.0218 30 7.20644 28.4196 4.3934 25.6066C1.58035 22.7936 0 18.9782 0 15C0 11.0218 1.58035 7.20644 4.3934 4.3934C7.20644 1.58035 11.0218 0 15 0C18.9782 0 22.7936 1.58035 25.6066 4.3934C28.4196 7.20644 30 11.0218 30 15ZM15.9375 21.5625C15.9375 21.8111 15.8387 22.0496 15.6629 22.2254C15.4871 22.4012 15.2486 22.5 15 22.5C14.7514 22.5 14.5129 22.4012 14.3371 22.2254C14.1613 22.0496 14.0625 21.8111 14.0625 21.5625V10.7006L10.0387 14.7262C9.86271 14.9023 9.62395 15.0012 9.375 15.0012C9.12605 15.0012 8.88729 14.9023 8.71125 14.7262C8.53521 14.5502 8.43632 14.3115 8.43632 14.0625C8.43632 13.8135 8.53521 13.5748 8.71125 13.3988L14.3363 7.77375C14.4233 7.68644 14.5268 7.61718 14.6407 7.56991C14.7546 7.52265 14.8767 7.49832 15 7.49832C15.1233 7.49832 15.2454 7.52265 15.3593 7.56991C15.4732 7.61718 15.5767 7.68644 15.6637 7.77375L21.2887 13.3988C21.4648 13.5748 21.5637 13.8135 21.5637 14.0625C21.5637 14.3115 21.4648 14.5502 21.2887 14.7262C21.1127 14.9023 20.874 15.0012 20.625 15.0012C20.376 15.0012 20.1373 14.9023 19.9613 14.7262L15.9375 10.7006V21.5625Z" fill="#333333"/>
</svg>
